<?xml version="1.0" encoding="UTF-8" standalone="no"?>
<!-- Created with Inkscape (http://www.inkscape.org/) -->

<svg
   xmlns:dc="http://purl.org/dc/elements/1.1/"
   xmlns:cc="http://creativecommons.org/ns#"
   xmlns:rdf="http://www.w3.org/1999/02/22-rdf-syntax-ns#"
   xmlns:svg="http://www.w3.org/2000/svg"
   xmlns="http://www.w3.org/2000/svg"
   xmlns:sodipodi="http://sodipodi.sourceforge.net/DTD/sodipodi-0.dtd"
   xmlns:inkscape="http://www.inkscape.org/namespaces/inkscape"
   width="183"
   height="183"
   id="svg2"
   version="1.1"
   inkscape:version="0.92.2 (5c3e80d, 2017-08-06)"
   sodipodi:docname="SketcherClipView.svg"
   inkscape:export-filename="/home/gael/.FreeCAD/FreeCAD-macros/icons/MeasureCircle.png"
   inkscape:export-xdpi="31.48"
   inkscape:export-ydpi="31.48">
  <defs
     id="defs4">
    <inkscape:perspective
       sodipodi:type="inkscape:persp3d"
       inkscape:vp_x="87.47059 : 130.83235 : 1"
       inkscape:vp_y="0 : 1000 : 0"
       inkscape:vp_z="-38.728482 : 71.802033 : 1"
       inkscape:persp3d-origin="121.2995 : 18.573593 : 1"
       id="perspective856" />
    <marker
       inkscape:stockid="Arrow1Mend"
       orient="auto"
       refY="0"
       refX="0"
       id="Arrow1Mend"
       style="overflow:visible">
      <path
         id="path3780"
         d="M 0,0 5,-5 -12.5,0 5,5 0,0 z"
         style="fill-rule:evenodd;stroke:#000000;stroke-width:1pt"
         transform="matrix(-0.4,0,0,-0.4,-4,0)"
         inkscape:connector-curvature="0" />
    </marker>
    <marker
       inkscape:stockid="Arrow1Mstart"
       orient="auto"
       refY="0"
       refX="0"
       id="Arrow1Mstart"
       style="overflow:visible">
      <path
         id="path3777"
         d="M 0,0 5,-5 -12.5,0 5,5 0,0 z"
         style="fill-rule:evenodd;stroke:#000000;stroke-width:1pt"
         transform="matrix(0.4,0,0,0.4,4,0)"
         inkscape:connector-curvature="0" />
    </marker>
    <marker
       style="overflow:visible"
       id="DistanceStart"
       refX="0"
       refY="0"
       orient="auto"
       inkscape:stockid="DistanceStart">
      <g
         id="g2300">
        <path
           style="fill:none;stroke:#ffffff;stroke-width:1.14999998;stroke-linecap:square"
           d="M 0,0 2,0"
           id="path2306"
           inkscape:connector-curvature="0" />
        <path
           style="fill:#000000;fill-rule:evenodd;stroke:none"
           d="M 0,0 13,4 9,0 13,-4 0,0 z"
           id="path2302"
           inkscape:connector-curvature="0" />
        <path
           style="fill:none;stroke:#000000;stroke-width:1;stroke-linecap:square"
           d="M 0,-4 0,40"
           id="path2304"
           inkscape:connector-curvature="0" />
      </g>
    </marker>
  </defs>
  <sodipodi:namedview
     id="base"
     pagecolor="#ffffff"
     bordercolor="#666666"
     borderopacity="1.0"
     inkscape:pageopacity="0.0"
     inkscape:pageshadow="2"
     inkscape:zoom="0.45254834"
     inkscape:cx="-144.56461"
     inkscape:cy="282.03953"
     inkscape:document-units="px"
     inkscape:current-layer="layer1"
     showgrid="false"
     inkscape:snap-global="false"
     inkscape:object-nodes="false"
     inkscape:window-width="1083"
     inkscape:window-height="812"
     inkscape:window-x="560"
     inkscape:window-y="213"
     inkscape:window-maximized="0"
     fit-margin-top="1"
     fit-margin-left="1"
     fit-margin-right="1"
     fit-margin-bottom="1"
     inkscape:snap-others="false"
     inkscape:snap-nodes="false" />
  <metadata
     id="metadata7">
    <rdf:RDF>
      <cc:Work
         rdf:about="">
        <dc:format>image/svg+xml</dc:format>
        <dc:type
           rdf:resource="http://purl.org/dc/dcmitype/StillImage" />
        <dc:title></dc:title>
      </cc:Work>
    </rdf:RDF>
  </metadata>
  <g
     inkscape:label="Layer 1"
     inkscape:groupmode="layer"
     id="layer1"
     transform="translate(-74.14286,-37.933613)">
    <rect
       style="fill:#cc0300;fill-opacity:1;stroke:#000000;stroke-width:4.05730915;stroke-miterlimit:4;stroke-dasharray:none;stroke-dashoffset:0;stroke-opacity:1"
       id="rect989"
       width="40.106682"
       height="75.682526"
       x="212.12798"
       y="0.58157384"
       ry="0"
       transform="matrix(0.86775852,0.49698606,0,1,0,0)"
       inkscape:transform-center-x="-11.048543" />
    <rect
       inkscape:transform-center-x="-11.048543"
       transform="matrix(0.86775852,0.49698606,0,1,0,0)"
       ry="0"
       y="7.7829595"
       x="124.27525"
       height="75.682526"
       width="40.106682"
       id="rect991"
       style="fill:#cc0300;fill-opacity:1;stroke:#000000;stroke-width:4.05730915;stroke-miterlimit:4;stroke-dasharray:none;stroke-dashoffset:0;stroke-opacity:1" />
    <path
       style="fill:none;stroke:#000000;stroke-width:3;stroke-linecap:butt;stroke-linejoin:miter;stroke-opacity:1;stroke-miterlimit:4;stroke-dasharray:none"
       d="M 184.07586,106.00622 C 201.79043,89.34153 164.82786,68.186866 142.64382,89.478486"
       id="path995"
       inkscape:connector-curvature="0"
       sodipodi:nodetypes="cc" />
    <path
       style="fill:none;stroke:#000000;stroke-width:1px;stroke-linecap:butt;stroke-linejoin:miter;stroke-opacity:1"
       d="M 107.84091,69.546028 Z"
       id="path997"
       inkscape:connector-curvature="0" />
    <path
       style="fill:none;stroke:#000000;stroke-width:3;stroke-linecap:butt;stroke-linejoin:miter;stroke-opacity:1;stroke-miterlimit:4;stroke-dasharray:none"
       d="M 218.87877,125.93868 C 263.74349,83.774482 177.58817,27.897686 107.84091,69.546028"
       id="path1001"
       inkscape:connector-curvature="0"
       sodipodi:nodetypes="cc" />
    <path
       sodipodi:nodetypes="cc"
       inkscape:connector-curvature="0"
       id="path1003"
       d="m 183.39994,163.19624 c -11.75245,-11.74156 -29.6641,-12.09794 -40.75612,2.84475"
       style="fill:none;stroke:#000000;stroke-width:3;stroke-linecap:butt;stroke-linejoin:miter;stroke-opacity:1;stroke-miterlimit:4;stroke-dasharray:none" />
    <path
       style="fill:none;stroke:#000000;stroke-width:3;stroke-linecap:butt;stroke-linejoin:miter;stroke-opacity:1;stroke-miterlimit:4;stroke-dasharray:none"
       d="m 231.17411,99.058612 c 0.39063,3.515628 0.7326,58.563678 0.39063,90.234368 -0.0826,7.64776 -12.68597,12.32822 -12.68597,12.32822"
       id="path1005"
       inkscape:connector-curvature="0"
       sodipodi:nodetypes="csc" />
    <path
       style="fill:#93b3df;fill-opacity:1;stroke:#000000;stroke-width:2;stroke-miterlimit:4;stroke-dasharray:none;stroke-dashoffset:0;stroke-opacity:1"
       d="M 70.62419,86.878759 V 52.174695 l 4.075543,-2.769403 c 6.049353,-4.110642 14.450939,-5.700425 21.632184,-4.093333 7.736313,1.73131 12.597073,4.837617 14.800583,9.458428 1.52852,3.205334 1.59224,4.320725 0.40993,7.175073 -0.76996,1.858858 -1.83942,3.108126 -2.37656,2.776151 -0.55588,-0.343549 -0.97663,11.562477 -0.97663,27.6354 0,15.531449 -0.1243,28.236909 -0.27622,28.234369 -0.15191,-0.003 -2.7221,-1.24551 -5.71152,-2.76214 -7.941329,-4.0289 -17.125051,-3.84875 -25.388418,0.49804 l -6.188892,3.25554 z"
       id="path4708"
       inkscape:connector-curvature="0"
       transform="translate(74.14286,37.933613)" />
    <path
       style="fill:#93b3df;fill-opacity:1;stroke:#000000;stroke-width:2;stroke-miterlimit:4;stroke-dasharray:none;stroke-dashoffset:0;stroke-opacity:1"
       d="m 136.91545,80.892347 c -3.94985,-2.294522 -10.73144,-6.222276 -15.07019,-8.728344 l -7.88863,-4.556489 1.49116,-4.328127 c 3.8504,-11.175871 -5.99192,-20.93097 -22.174086,-21.977574 -8.945127,-0.578538 -15.148619,0.82227 -20.887098,4.716507 l -4.064988,2.758574 -14.592889,-8.381913 c -8.026088,-4.610052 -14.795651,-8.582326 -15.043472,-8.827276 -0.893283,-0.882929 14.268828,-7.083044 23.2806,-9.519941 13.251652,-3.583414 36.343724,-3.571058 48.985513,0.02621 19.28298,5.487043 35.42444,16.835716 41.23141,28.988819 4.65895,9.750445 2.07063,24.749659 -5.45363,31.603717 l -2.63215,2.397692 z"
       id="path4710"
       inkscape:connector-curvature="0"
       transform="translate(74.14286,37.933613)" />
    <path
       style="fill:#93b3df;fill-opacity:1;stroke:#000000;stroke-width:2;stroke-miterlimit:4;stroke-dasharray:none;stroke-dashoffset:0;stroke-opacity:1"
       d="M 146.85914,124.93707 V 89.425641 l 3.1424,-4.025984 c 1.72832,-2.214291 3.70194,-5.020353 4.38582,-6.235693 0.94069,-1.671714 1.2516,6.967161 1.27702,35.482556 0.0326,36.51465 -0.0381,37.78343 -2.2618,40.61038 -1.26246,1.60496 -3.2512,3.42965 -4.41942,4.05486 -2.07498,1.1105 -2.12402,0.31686 -2.12402,-34.37469 z"
       id="path4712"
       inkscape:connector-curvature="0"
       transform="translate(74.14286,37.933613)" />
    <rect
       transform="matrix(0.88173794,0.47173955,0,1,0,0)"
       y="-12.05349"
       x="113.05831"
       height="107.43271"
       width="152.5531"
       id="rect4714"
       style="fill:#efff07;fill-opacity:0.32160806;stroke:#000000;stroke-width:2.44603324;stroke-miterlimit:4;stroke-dasharray:none;stroke-dashoffset:0;stroke-opacity:1" />
  </g>
</svg>
