<?xml version="1.0" encoding="UTF-8"?>
<svg xmlns="http://www.w3.org/2000/svg" xmlns:xlink="http://www.w3.org/1999/xlink" width="64pt" height="64pt" viewBox="0 0 64 64" version="1.1">
<g id="surface1">
<path style=" stroke:none;fill-rule:evenodd;fill:rgb(76.470588%,76.470588%,76.470588%);fill-opacity:1;" d="M 22.175781 14.324219 C 22.253906 14.332031 22.378906 14.332031 22.453125 14.324219 C 22.53125 14.316406 22.46875 14.308594 22.316406 14.308594 C 22.160156 14.308594 22.101562 14.316406 22.175781 14.324219 M 22.988281 14.324219 C 23.039062 14.332031 23.117188 14.332031 23.15625 14.324219 C 23.199219 14.3125 23.15625 14.304688 23.0625 14.304688 C 22.96875 14.304688 22.933594 14.3125 22.988281 14.324219 M 21.109375 14.367188 C 21.164062 14.375 21.238281 14.375 21.28125 14.367188 C 21.320312 14.355469 21.277344 14.347656 21.183594 14.347656 C 21.089844 14.347656 21.058594 14.355469 21.109375 14.367188 M 24.960938 15.039062 C 25.019531 15.074219 25.085938 15.101562 25.109375 15.101562 C 25.132812 15.101562 25.105469 15.074219 25.046875 15.039062 C 24.988281 15.007812 24.917969 14.980469 24.894531 14.980469 C 24.871094 14.980469 24.902344 15.007812 24.960938 15.039062 M 27.265625 16.105469 C 27.324219 16.140625 27.390625 16.167969 27.414062 16.167969 C 27.4375 16.167969 27.40625 16.140625 27.347656 16.105469 C 27.289062 16.074219 27.222656 16.046875 27.199219 16.046875 C 27.175781 16.046875 27.207031 16.074219 27.265625 16.105469 M 29.566406 17.171875 C 29.625 17.207031 29.695312 17.234375 29.71875 17.234375 C 29.742188 17.234375 29.710938 17.207031 29.652344 17.171875 C 29.59375 17.140625 29.527344 17.113281 29.503906 17.113281 C 29.480469 17.113281 29.507812 17.140625 29.566406 17.171875 M 20.414062 17.8125 C 15.015625 18.507812 10.585938 22.164062 8.839844 27.371094 C 5.984375 35.875 11.390625 44.894531 20.117188 46.1875 C 21.445312 46.382812 23.609375 46.078125 24.492188 45.574219 C 24.621094 45.5 24.820312 45.394531 24.9375 45.339844 C 25.054688 45.28125 29.867188 43.054688 35.625 40.382812 C 41.386719 37.714844 47.550781 34.859375 49.324219 34.039062 C 51.09375 33.214844 52.78125 32.4375 53.066406 32.304688 C 53.355469 32.175781 53.582031 32.046875 53.574219 32.023438 C 53.542969 31.914062 24.316406 18.441406 23.832031 18.308594 C 23.082031 18.105469 21.109375 17.734375 20.890625 17.753906 C 20.863281 17.757812 20.648438 17.785156 20.414062 17.8125 M 31.871094 18.238281 C 31.929688 18.273438 31.996094 18.300781 32.019531 18.300781 C 32.042969 18.300781 32.015625 18.273438 31.957031 18.238281 C 31.898438 18.207031 31.832031 18.179688 31.808594 18.179688 C 31.785156 18.179688 31.8125 18.207031 31.871094 18.238281 M 10.472656 18.910156 L 10.304688 19.09375 L 10.484375 18.925781 C 10.652344 18.769531 10.6875 18.730469 10.652344 18.730469 C 10.648438 18.730469 10.566406 18.8125 10.472656 18.910156 M 9.855469 19.476562 C 9.679688 19.652344 9.546875 19.796875 9.558594 19.796875 C 9.570312 19.796875 9.722656 19.652344 9.898438 19.476562 C 10.074219 19.300781 10.207031 19.15625 10.195312 19.15625 C 10.183594 19.15625 10.03125 19.300781 9.855469 19.476562 M 34.175781 19.308594 C 34.234375 19.339844 34.300781 19.367188 34.324219 19.367188 C 34.347656 19.367188 34.320312 19.339844 34.261719 19.308594 C 34.203125 19.273438 34.136719 19.246094 34.113281 19.246094 C 34.089844 19.246094 34.117188 19.273438 34.175781 19.308594 M 9.277344 20.105469 L 9.109375 20.289062 L 9.289062 20.121094 C 9.460938 19.960938 9.492188 19.925781 9.460938 19.925781 C 9.453125 19.925781 9.371094 20.007812 9.277344 20.105469 M 48.554688 25.960938 C 48.613281 25.996094 48.679688 26.023438 48.703125 26.023438 C 48.726562 26.023438 48.699219 25.996094 48.640625 25.960938 C 48.582031 25.929688 48.515625 25.902344 48.492188 25.902344 C 48.46875 25.902344 48.496094 25.929688 48.554688 25.960938 M 50.859375 27.027344 C 50.917969 27.0625 50.984375 27.089844 51.007812 27.089844 C 51.03125 27.089844 51.003906 27.0625 50.945312 27.027344 C 50.886719 26.996094 50.816406 26.96875 50.792969 26.96875 C 50.769531 26.96875 50.800781 26.996094 50.859375 27.027344 M 53.164062 28.097656 C 53.222656 28.128906 53.289062 28.15625 53.3125 28.15625 C 53.335938 28.15625 53.308594 28.128906 53.246094 28.097656 C 53.1875 28.0625 53.121094 28.035156 53.097656 28.035156 C 53.074219 28.035156 53.105469 28.0625 53.164062 28.097656 M 55.464844 29.164062 C 55.523438 29.195312 55.59375 29.222656 55.617188 29.222656 C 55.640625 29.222656 55.609375 29.195312 55.550781 29.164062 C 55.492188 29.128906 55.425781 29.101562 55.402344 29.101562 C 55.378906 29.101562 55.40625 29.128906 55.464844 29.164062 M 57.769531 30.230469 C 57.828125 30.261719 57.894531 30.289062 57.921875 30.289062 C 57.945312 30.289062 57.914062 30.261719 57.855469 30.230469 C 57.796875 30.195312 57.730469 30.167969 57.707031 30.167969 C 57.683594 30.167969 57.710938 30.195312 57.769531 30.230469 M 4.746094 30.785156 C 4.746094 30.878906 4.757812 30.910156 4.765625 30.859375 C 4.777344 30.804688 4.777344 30.726562 4.765625 30.6875 C 4.753906 30.648438 4.746094 30.691406 4.746094 30.785156 M 59.121094 31.253906 C 59.160156 31.335938 59.203125 31.394531 59.210938 31.386719 C 59.230469 31.367188 59.101562 31.105469 59.070312 31.105469 C 59.0625 31.105469 59.085938 31.171875 59.121094 31.253906 M 4.710938 32.042969 C 4.710938 32.289062 4.714844 32.390625 4.726562 32.265625 C 4.734375 32.144531 4.734375 31.941406 4.726562 31.820312 C 4.714844 31.695312 4.710938 31.796875 4.710938 32.042969 M 59.320312 32.042969 C 59.320312 32.171875 59.328125 32.222656 59.335938 32.160156 C 59.347656 32.09375 59.347656 31.988281 59.335938 31.925781 C 59.328125 31.859375 59.320312 31.914062 59.320312 32.042969 M 4.746094 33.257812 C 4.746094 33.351562 4.757812 33.386719 4.765625 33.332031 C 4.777344 33.28125 4.777344 33.203125 4.765625 33.164062 C 4.753906 33.121094 4.746094 33.164062 4.746094 33.257812 M 53.546875 35.777344 C 53.488281 35.808594 53.460938 35.835938 53.484375 35.835938 C 53.507812 35.835938 53.574219 35.808594 53.632812 35.777344 C 53.691406 35.742188 53.71875 35.714844 53.695312 35.714844 C 53.671875 35.714844 53.605469 35.742188 53.546875 35.777344 M 49.492188 37.652344 C 49.433594 37.6875 49.40625 37.714844 49.429688 37.714844 C 49.453125 37.714844 49.519531 37.6875 49.578125 37.652344 C 49.636719 37.621094 49.667969 37.59375 49.644531 37.59375 C 49.621094 37.59375 49.550781 37.621094 49.492188 37.652344 M 45.441406 39.53125 C 45.382812 39.5625 45.351562 39.589844 45.375 39.589844 C 45.398438 39.589844 45.464844 39.5625 45.523438 39.53125 C 45.585938 39.496094 45.613281 39.46875 45.589844 39.46875 C 45.566406 39.46875 45.5 39.496094 45.441406 39.53125 M 43.136719 40.597656 C 43.078125 40.632812 43.046875 40.660156 43.070312 40.660156 C 43.09375 40.660156 43.164062 40.632812 43.222656 40.597656 C 43.28125 40.5625 43.308594 40.535156 43.285156 40.535156 C 43.261719 40.535156 43.195312 40.5625 43.136719 40.597656 M 39.082031 42.476562 C 39.023438 42.507812 38.996094 42.535156 39.019531 42.535156 C 39.042969 42.535156 39.109375 42.507812 39.167969 42.476562 C 39.226562 42.441406 39.253906 42.414062 39.230469 42.414062 C 39.207031 42.414062 39.140625 42.441406 39.082031 42.476562 M 9.238281 43.902344 C 9.328125 43.996094 9.414062 44.074219 9.425781 44.074219 C 9.4375 44.074219 9.371094 43.996094 9.28125 43.902344 C 9.1875 43.808594 9.105469 43.734375 9.09375 43.734375 C 9.082031 43.734375 9.144531 43.808594 9.238281 43.902344 M 9.855469 44.566406 C 10.078125 44.789062 10.269531 44.972656 10.28125 44.972656 C 10.292969 44.972656 10.121094 44.789062 9.898438 44.566406 C 9.675781 44.34375 9.484375 44.160156 9.472656 44.160156 C 9.460938 44.160156 9.632812 44.34375 9.855469 44.566406 M 35.027344 44.351562 C 34.972656 44.386719 34.941406 44.414062 34.964844 44.414062 C 34.988281 44.414062 35.054688 44.386719 35.113281 44.351562 C 35.171875 44.320312 35.203125 44.292969 35.179688 44.292969 C 35.15625 44.292969 35.089844 44.320312 35.027344 44.351562 M 10.515625 45.183594 C 10.609375 45.277344 10.695312 45.355469 10.707031 45.355469 C 10.71875 45.355469 10.652344 45.277344 10.558594 45.183594 C 10.46875 45.089844 10.382812 45.011719 10.371094 45.011719 C 10.359375 45.011719 10.425781 45.089844 10.515625 45.183594 M 32.726562 45.417969 C 32.667969 45.453125 32.636719 45.480469 32.660156 45.480469 C 32.683594 45.480469 32.753906 45.453125 32.8125 45.417969 C 32.871094 45.386719 32.898438 45.359375 32.875 45.359375 C 32.851562 45.359375 32.785156 45.386719 32.726562 45.417969 M 11.820312 46.222656 C 11.820312 46.234375 11.875 46.285156 11.945312 46.335938 C 12.015625 46.386719 12.074219 46.417969 12.074219 46.40625 C 12.074219 46.394531 12.015625 46.34375 11.945312 46.292969 C 11.875 46.242188 11.820312 46.210938 11.820312 46.222656 M 12.402344 46.636719 C 12.453125 46.703125 12.714844 46.867188 12.714844 46.835938 C 12.714844 46.824219 12.632812 46.761719 12.535156 46.695312 C 12.433594 46.632812 12.375 46.605469 12.402344 46.636719 M 28.671875 47.296875 C 28.613281 47.328125 28.585938 47.355469 28.609375 47.355469 C 28.632812 47.355469 28.699219 47.328125 28.757812 47.296875 C 28.816406 47.261719 28.84375 47.234375 28.820312 47.234375 C 28.796875 47.234375 28.730469 47.261719 28.671875 47.296875 M 24.617188 49.171875 C 24.558594 49.207031 24.53125 49.234375 24.554688 49.234375 C 24.578125 49.234375 24.644531 49.207031 24.703125 49.171875 C 24.761719 49.140625 24.792969 49.113281 24.769531 49.113281 C 24.746094 49.113281 24.675781 49.140625 24.617188 49.171875 M 21.003906 49.695312 C 21.042969 49.703125 21.109375 49.703125 21.152344 49.695312 C 21.191406 49.683594 21.160156 49.675781 21.078125 49.675781 C 20.996094 49.675781 20.960938 49.683594 21.003906 49.695312 M 21.960938 49.738281 C 22.085938 49.746094 22.289062 49.746094 22.410156 49.738281 C 22.535156 49.730469 22.433594 49.722656 22.1875 49.722656 C 21.941406 49.722656 21.839844 49.730469 21.960938 49.738281 M 22.945312 49.738281 C 23.019531 49.746094 23.136719 49.746094 23.199219 49.738281 C 23.265625 49.726562 23.203125 49.71875 23.0625 49.71875 C 22.921875 49.71875 22.867188 49.726562 22.945312 49.738281 "/>
<path style=" stroke:none;fill-rule:evenodd;fill:rgb(10.980392%,10.980392%,10.980392%);fill-opacity:1;" d="M 0 32 L 0 64 L 64 64 L 64 0 L 0 0 L 0 32 M 60.800781 32.019531 L 60.800781 60.84375 L 3.199219 60.84375 L 3.199219 3.199219 L 60.800781 3.199219 L 60.800781 32.019531 M 21.226562 14.382812 C 10.3125 15.070312 2.621094 25.613281 5.246094 36.289062 C 7.160156 44.066406 14.023438 49.507812 22.148438 49.691406 C 23.507812 49.722656 23.253906 49.792969 25.523438 48.742188 C 26.515625 48.28125 29.796875 46.761719 32.8125 45.367188 C 35.824219 43.96875 40.511719 41.800781 43.222656 40.542969 C 45.933594 39.289062 50.347656 37.246094 53.035156 36 C 59.121094 33.183594 58.574219 33.449219 58.855469 33.148438 C 59.605469 32.335938 59.367188 31.035156 58.378906 30.53125 C 58.265625 30.476562 55.1875 29.046875 51.539062 27.359375 C 25.371094 15.242188 23.605469 14.429688 23.382812 14.386719 C 23.101562 14.335938 22.003906 14.332031 21.226562 14.382812 M 21.363281 17.792969 C 21.855469 17.84375 23.328125 18.140625 23.90625 18.304688 C 24.203125 18.386719 24.875 18.675781 26.027344 19.207031 C 26.953125 19.636719 33.542969 22.6875 40.671875 25.984375 C 47.800781 29.28125 53.632812 32 53.632812 32.023438 C 53.632812 32.046875 47.253906 35.023438 39.457031 38.632812 C 31.660156 42.242188 25.019531 45.328125 24.703125 45.484375 C 21.660156 46.996094 17.308594 46.230469 13.765625 43.566406 C 5.738281 37.535156 6.285156 25.066406 14.804688 19.757812 C 16.871094 18.472656 19.714844 17.617188 21.363281 17.792969 "/>
<path style=" stroke:none;fill-rule:evenodd;fill:rgb(45.490196%,45.490196%,45.490196%);fill-opacity:1;" d="M 8.074219 31.359375 C 8.074219 31.441406 8.082031 31.476562 8.09375 31.433594 C 8.105469 31.394531 8.105469 31.328125 8.09375 31.285156 C 8.082031 31.246094 8.074219 31.277344 8.074219 31.359375 M 8.074219 32.683594 C 8.074219 32.765625 8.082031 32.796875 8.09375 32.757812 C 8.105469 32.714844 8.105469 32.648438 8.09375 32.609375 C 8.082031 32.566406 8.074219 32.601562 8.074219 32.683594 "/>
<path style=" stroke:none;fill-rule:evenodd;fill:rgb(32.54902%,32.54902%,32.54902%);fill-opacity:1;" d="M 12.246094 21.792969 L 11.882812 22.164062 L 12.257812 21.804688 C 12.601562 21.46875 12.648438 21.417969 12.617188 21.417969 C 12.613281 21.417969 12.445312 21.585938 12.246094 21.792969 M 12.246094 42.261719 C 12.445312 42.460938 12.617188 42.625 12.628906 42.625 C 12.640625 42.625 12.488281 42.460938 12.289062 42.261719 C 12.089844 42.0625 11.917969 41.898438 11.90625 41.898438 C 11.894531 41.898438 12.046875 42.0625 12.246094 42.261719 M 9.878906 44.542969 C 10.015625 44.683594 10.140625 44.800781 10.152344 44.800781 C 10.164062 44.800781 10.058594 44.683594 9.921875 44.542969 C 9.78125 44.402344 9.65625 44.289062 9.644531 44.289062 C 9.632812 44.289062 9.738281 44.402344 9.878906 44.542969 M 17.589844 60.832031 C 25.515625 60.839844 38.484375 60.839844 46.410156 60.832031 C 54.335938 60.824219 47.851562 60.820312 32 60.820312 C 16.148438 60.820312 9.664062 60.824219 17.589844 60.832031 "/>
</g>
</svg>