<?xml version="1.0" encoding="UTF-8" standalone="no"?>
<!-- Created with Inkscape (http://www.inkscape.org/) -->

<svg
   xmlns:dc="http://purl.org/dc/elements/1.1/"
   xmlns:cc="http://creativecommons.org/ns#"
   xmlns:rdf="http://www.w3.org/1999/02/22-rdf-syntax-ns#"
   xmlns:svg="http://www.w3.org/2000/svg"
   xmlns="http://www.w3.org/2000/svg"
   xmlns:sodipodi="http://sodipodi.sourceforge.net/DTD/sodipodi-0.dtd"
   xmlns:inkscape="http://www.inkscape.org/namespaces/inkscape"
   width="210mm"
   height="297mm"
   viewBox="0 0 210 297"
   version="1.1"
   id="svg3766"
   inkscape:version="0.92.2 (5c3e80d, 2017-08-06)"
   sodipodi:docname="LOGO_small.svg">
  <defs
     id="defs3760" />
  <sodipodi:namedview
     id="base"
     pagecolor="#ffffff"
     bordercolor="#666666"
     borderopacity="1.0"
     inkscape:pageopacity="0.0"
     inkscape:pageshadow="2"
     inkscape:zoom="0.35"
     inkscape:cx="400"
     inkscape:cy="560"
     inkscape:document-units="mm"
     inkscape:current-layer="layer1"
     showgrid="false"
     inkscape:window-width="1920"
     inkscape:window-height="981"
     inkscape:window-x="0"
     inkscape:window-y="28"
     inkscape:window-maximized="1" />
  <metadata
     id="metadata3763">
    <rdf:RDF>
      <cc:Work
         rdf:about="">
        <dc:format>image/svg+xml</dc:format>
        <dc:type
           rdf:resource="http://purl.org/dc/dcmitype/StillImage" />
        <dc:title></dc:title>
      </cc:Work>
    </rdf:RDF>
  </metadata>
  <g
     inkscape:label="Layer 1"
     inkscape:groupmode="layer"
     id="layer1">
    <path
       inkscape:connector-curvature="0"
       style="fill:#1872f0;stroke-width:8.70236111"
       d="m 105.13327,51.693599 c -3.60253,0 -6.526521,-2.923994 -6.526521,-6.526786 V 11.036138 c 0,-3.6027605 2.923991,-6.5267538 6.526521,-6.5267538 3.60286,0 6.52685,2.9239933 6.52685,6.5267538 v 34.130675 c 0,3.602792 -2.92399,6.526786 -6.52685,6.526786"
       id="Fill-15" />
    <path
       inkscape:connector-curvature="0"
       style="fill:#b2bbcc;stroke-width:8.70236111"
       d="M 189.77252,216.3118 H 20.494437 c -3.60286,0 -6.526853,-2.924 -6.526853,-6.52676 0,-3.6028 2.923993,-6.52679 6.526853,-6.52679 H 189.77252 c 3.60286,0 6.52685,2.92399 6.52685,6.52679 0,3.60276 -2.92399,6.52676 -6.52685,6.52676"
       id="Fill-19" />
    <path
       inkscape:connector-curvature="0"
       style="fill:#b2bbcc;stroke-width:8.70236111"
       d="m 23.170435,293.76197 c -0.730176,0 -1.480087,-0.12168 -2.220131,-0.38286 -3.394004,-1.23569 -5.143137,-4.96903 -3.924861,-8.36298 l 64.18873,-177.69352 c 1.226829,-3.38522 4.942818,-5.16051 8.362787,-3.92476 3.393982,1.22716 5.1431,4.96905 3.924839,8.35427 L 29.313123,289.45436 c -0.96699,2.65428 -3.472284,4.30768 -6.143676,4.30768"
       id="Fill-21" />
    <path
       inkscape:connector-curvature="0"
       style="fill:#b2bbcc;stroke-width:8.70236111"
       d="m 187.10013,293.76197 c -2.67072,0 -5.178,-1.65342 -6.14399,-4.30768 L 116.76773,111.75205 c -1.22682,-3.38522 0.52954,-7.12724 3.92454,-8.35426 3.38545,-1.23571 7.12744,0.53941 8.35427,3.92476 l 64.19728,177.69352 c 1.22025,3.39394 -0.52954,7.12724 -3.92454,8.36299 -0.73017,0.25983 -1.48995,0.38285 -2.22013,0.38285"
       id="Fill-23" />
    <path
       inkscape:connector-curvature="0"
       style="fill:#1872f0;stroke-width:8.70236111"
       d="m 105.13327,233.38062 c -3.60253,0 -6.526521,-2.924 -6.526521,-6.52676 v -34.13067 c 0,-3.60279 2.923991,-6.52679 6.526521,-6.52679 3.60286,0 6.52685,2.924 6.52685,6.52679 v 34.13067 c 0,3.60276 -2.92399,6.52676 -6.52685,6.52676"
       id="Fill-17" />
    <path
       inkscape:connector-curvature="0"
       style="fill:#2c72f0;stroke-width:8.70236111"
       d="m 122.94989,144.3772 c -2.38458,0 -4.69056,-1.31398 -5.83088,-3.59407 -1.61823,-3.22 -0.32891,-7.14464 2.89767,-8.76326 11.41739,-5.74356 18.51852,-17.13496 18.51852,-29.72729 0,-18.414169 -14.98537,-33.399652 -33.39963,-33.399652 -18.422732,0 -33.399543,14.985483 -33.399543,33.399652 0,12.59233 7.092576,23.98373 18.51881,29.72729 3.219992,1.61855 4.516203,5.54338 2.897662,8.76326 -1.618221,3.22001 -5.543387,4.52522 -8.763049,2.89801 -15.855673,-7.97136 -25.706802,-23.82707 -25.706802,-41.38842 0,-25.611057 20.833373,-46.453204 46.452922,-46.453204 25.61108,0 46.45334,20.842147 46.45334,46.453204 0,17.56135 -9.85112,33.41706 -25.71536,41.38842 -0.9308,0.47856 -1.94056,0.69629 -2.92398,0.69629"
       id="Fill-13" />
  </g>
</svg>
