<?xml version="1.0" encoding="UTF-8"?>
<!-- 2026-01-24 20:45:55 Generated by QCAD 3.32.6 SVG Exporter -->
<svg width="17.9778mm" height="17.9778mm" viewBox="-4.7452 0.0615 17.9778 17.9778" version="1.1" xmlns="http://www.w3.org/2000/svg" style="stroke-linecap:round;stroke-linejoin:round;fill:none">
    <g transform="scale(1,-1)">
        <!-- Hatch -->
        <path d="M13.1326,-13.4948 L11.3548,-13.4948 L11.3548,-4.6059 L13.1326,-4.6059 L13.1326,-1.4948 A1.33333,1.33333 0 0 1 11.7993,-0.1615 L-3.3118,-0.1615 A1.33333,1.33333 0 0 1 -4.6452,-1.4948 L-4.6452,-4.6059 L-2.8674,-4.6059 L-2.8674,-13.4948 L-4.6452,-13.4948 L-4.6452,-16.6059 A1.33333,1.33333 0 0 1 -3.3118,-17.9393 L11.7993,-17.9393 A1.33333,1.33333 0 0 1 13.1326,-16.6059 Z" style="fill:#5988be;fill-rule:evenodd;"/>
        <!-- Polyline -->
        <path d="M13.1326,-13.4948 L11.3548,-13.4948 L11.3548,-4.6059 L13.1326,-4.6059 L13.1326,-1.4948 A1.33333,1.33333 0 0 1 11.7993,-0.1615 L-3.3118,-0.1615 A1.33333,1.33333 0 0 1 -4.6452,-1.4948 L-4.6452,-4.6059 L-2.8674,-4.6059 L-2.8674,-13.4948 L-4.6452,-13.4948 L-4.6452,-16.6059 A1.33333,1.33333 0 0 1 -3.3118,-17.9393 L11.7993,-17.9393 A1.33333,1.33333 0 0 1 13.1326,-16.6059 Z" style="stroke:#0c1522;stroke-width:0.5;"/>
        <!-- Hatch -->
        <path d="M9.0535,-16.5077 L9.0535,-13.1486 A0.787521,0.787521 0 0 1 8.2437,-12.3897 A0.787537,0.787537 0 0 1 7.4339,-13.1486 L7.4339,-16.5077 A0.787521,0.787521 0 0 1 8.2437,-17.2666 A0.787538,0.787538 0 0 1 9.0535,-16.5077M9.0535,-7.3709 L9.0535,-10.7299 A0.787521,0.787521 0 0 0 8.2437,-11.4888 A0.787537,0.787537 0 0 0 7.4339,-10.7299 L7.4339,-7.3709 A0.787521,0.787521 0 0 0 8.2437,-6.612 A0.787538,0.787538 0 0 0 9.0535,-7.3709M-0.5661,-7.3709 L-0.5661,-10.7299 A0.787521,0.787521 0 0 1 0.2437,-11.4888 A0.787537,0.787537 0 0 1 1.0535,-10.7299 L1.0535,-7.3709 A0.787521,0.787521 0 0 1 0.2437,-6.612 A0.787538,0.787538 0 0 1 -0.5661,-7.3709M-0.5661,-16.5077 L-0.5661,-13.1486 A0.787521,0.787521 0 0 0 0.2437,-12.3897 A0.787537,0.787537 0 0 0 1.0535,-13.1486 L1.0535,-16.5077 A0.787521,0.787521 0 0 0 0.2437,-17.2666 A0.787538,0.787538 0 0 0 -0.5661,-16.5077M-0.5661,-1.5931 L-0.5661,-4.9521 A0.787521,0.787521 0 0 1 0.2437,-5.711 A0.787537,0.787537 0 0 1 1.0535,-4.9521 L1.0535,-1.5931 A0.787521,0.787521 0 0 1 0.2437,-0.8342 A0.787538,0.787538 0 0 1 -0.5661,-1.5931M9.0535,-1.5931 L9.0535,-4.9521 A0.787521,0.787521 0 0 0 8.2437,-5.711 A0.787537,0.787537 0 0 0 7.4339,-4.9521 L7.4339,-1.5931 A0.787521,0.787521 0 0 0 8.2437,-0.8342 A0.787538,0.787538 0 0 0 9.0535,-1.5931" style="fill:#72ff53;fill-rule:evenodd;"/>
        <!-- Polyline -->
        <path d="M-0.5661,-7.3709 L-0.5661,-10.7299 A0.787521,0.787521 0 0 1 0.2437,-11.4888 A0.787537,0.787537 0 0 1 1.0535,-10.7299 L1.0535,-7.3709 A0.787521,0.787521 0 0 1 0.2437,-6.612 A0.787538,0.787538 0 0 1 -0.5661,-7.3709" style="stroke:#0c1522;stroke-width:0.3;"/>
        <!-- Polyline -->
        <path d="M-0.5661,-1.5931 L-0.5661,-4.9521 A0.787521,0.787521 0 0 1 0.2437,-5.711 A0.787537,0.787537 0 0 1 1.0535,-4.9521 L1.0535,-1.5931 A0.787521,0.787521 0 0 1 0.2437,-0.8342 A0.787538,0.787538 0 0 1 -0.5661,-1.5931" style="stroke:#0c1522;stroke-width:0.3;"/>
        <!-- Polyline -->
        <path d="M-0.5661,-16.5077 L-0.5661,-13.1486 A0.787521,0.787521 0 0 0 0.2437,-12.3897 A0.787537,0.787537 0 0 0 1.0535,-13.1486 L1.0535,-16.5077 A0.787521,0.787521 0 0 0 0.2437,-17.2666 A0.787538,0.787538 0 0 0 -0.5661,-16.5077" style="stroke:#0c1522;stroke-width:0.3;"/>
        <!-- Polyline -->
        <path d="M9.0535,-7.3709 L9.0535,-10.7299 A0.787521,0.787521 0 0 0 8.2437,-11.4888 A0.787537,0.787537 0 0 0 7.4339,-10.7299 L7.4339,-7.3709 A0.787521,0.787521 0 0 0 8.2437,-6.612 A0.787538,0.787538 0 0 0 9.0535,-7.3709" style="stroke:#0c1522;stroke-width:0.3;"/>
        <!-- Polyline -->
        <path d="M9.0535,-16.5077 L9.0535,-13.1486 A0.787521,0.787521 0 0 1 8.2437,-12.3897 A0.787537,0.787537 0 0 1 7.4339,-13.1486 L7.4339,-16.5077 A0.787521,0.787521 0 0 1 8.2437,-17.2666 A0.787538,0.787538 0 0 1 9.0535,-16.5077" style="stroke:#0c1522;stroke-width:0.3;"/>
        <!-- Polyline -->
        <path d="M9.0535,-1.5931 L9.0535,-4.9521 A0.787521,0.787521 0 0 0 8.2437,-5.711 A0.787537,0.787537 0 0 0 7.4339,-4.9521 L7.4339,-1.5931 A0.787521,0.787521 0 0 0 8.2437,-0.8342 A0.787538,0.787538 0 0 0 9.0535,-1.5931" style="stroke:#0c1522;stroke-width:0.3;"/>
    </g>
</svg>
