<?xml version="1.0" encoding="UTF-8"?>
<svg xmlns="http://www.w3.org/2000/svg" xmlns:xlink="http://www.w3.org/1999/xlink" width="64pt" height="64pt" viewBox="0 0 64 64" version="1.1">
<g id="surface1">
<path style="fill:none;stroke-width:529;stroke-linecap:butt;stroke-linejoin:round;stroke:rgb(50.196078%,50.196078%,50.196078%);stroke-opacity:1;stroke-miterlimit:4;" d="M 8933.30485 8510.116211 C 8288.765381 8510.116211 7741.181234 8363.158773 7183.230794 8039.974365 C 6625.280355 7718.009521 6224.043864 7316.163249 5902.07902 6758.212809 C 5580.114176 6199.042806 5433.156738 5650.239095 5433.156738 5005.089844 C 5433.156738 4359.940592 5580.114176 3811.136882 5902.07902 3253.186442 C 6224.043864 2694.016439 6625.280355 2292.170166 7183.230794 1970.205322 C 7741.181234 1647.020915 8288.765381 1500.063477 8933.30485 1500.063477 " transform="matrix(0.00640598,0,0,0.00640598,0,0)"/>
<path style="fill:none;stroke-width:529;stroke-linecap:butt;stroke-linejoin:round;stroke:rgb(10.980392%,10.980392%,10.980392%);stroke-opacity:1;stroke-miterlimit:4;" d="M 4700.198893 8510.116211 C 4056.269206 8510.116211 3508.075277 8363.158773 2950.124837 8039.974365 C 2392.174398 7718.009521 1990.937907 7316.163249 1668.973063 6758.212809 C 1347.008219 6199.042806 1200.050781 5650.239095 1200.050781 5005.089844 C 1200.050781 4359.940592 1347.008219 3811.136882 1668.973063 3253.186442 C 1990.937907 2694.016439 2392.174398 2292.170166 2950.124837 1970.205322 C 3508.075277 1647.020915 4056.269206 1500.063477 4700.198893 1500.063477 " transform="matrix(0.00640598,0,0,0.00640598,0,0)"/>
<path style=" stroke:none;fill-rule:evenodd;fill:rgb(10.980392%,10.980392%,10.980392%);fill-opacity:1;" d="M 32.03125 3.203125 L 0 3.203125 L 0 0 L 64.058594 0 L 64.058594 3.203125 Z M 32.03125 3.203125 "/>
<path style=" stroke:none;fill-rule:evenodd;fill:rgb(10.980392%,10.980392%,10.980392%);fill-opacity:1;" d="M 32.03125 64.058594 L 0 64.058594 L 0 60.855469 L 64.058594 60.855469 L 64.058594 64.058594 Z M 32.03125 64.058594 "/>
<path style=" stroke:none;fill-rule:evenodd;fill:rgb(10.980392%,10.980392%,10.980392%);fill-opacity:1;" d="M 3.203125 32.03125 L 3.203125 64.058594 L 0 64.058594 L 0 0 L 3.203125 0 Z M 3.203125 32.03125 "/>
<path style=" stroke:none;fill-rule:evenodd;fill:rgb(10.980392%,10.980392%,10.980392%);fill-opacity:1;" d="M 64.058594 32.03125 L 64.058594 64.058594 L 60.855469 64.058594 L 60.855469 0 L 64.058594 0 Z M 64.058594 32.03125 "/>
<path style="fill:none;stroke-width:529;stroke-linecap:butt;stroke-linejoin:round;stroke:rgb(50.196078%,50.196078%,50.196078%);stroke-opacity:1;stroke-miterlimit:4;" d="M 8982.697184 7749.71818 C 8477.187988 7749.71818 8046.072184 7635.079183 7608.248779 7382.019694 C 7169.815592 7127.740641 6855.168132 6813.09318 6600.889079 6375.269775 C 6347.82959 5936.836589 6233.190592 5505.720785 6233.190592 5000.211589 C 6233.190592 4494.092611 6347.82959 4062.976807 6600.889079 3625.153402 C 6855.168132 3186.720215 7169.815592 2872.072754 7608.248779 2617.793701 C 8046.072184 2364.734212 8477.187988 2250.095215 8982.697184 2250.095215 " transform="matrix(0.00640598,0,0,0.00640598,0,0)"/>
<path style="fill:none;stroke-width:529;stroke-linecap:butt;stroke-linejoin:round;stroke:rgb(10.980392%,10.980392%,10.980392%);stroke-opacity:1;stroke-miterlimit:4;" d="M 4750.201009 7749.71818 C 4244.082031 7749.71818 3812.966227 7635.079183 3375.142822 7382.019694 C 2936.709635 7127.740641 2622.062174 6813.09318 2367.783122 6375.269775 C 2114.723633 5936.836589 2000.084635 5505.720785 2000.084635 5000.211589 C 2000.084635 4494.092611 2114.723633 4062.976807 2367.783122 3625.153402 C 2622.062174 3186.720215 2936.709635 2872.072754 3375.142822 2617.793701 C 3812.966227 2364.734212 4244.082031 2250.095215 4750.201009 2250.095215 " transform="matrix(0.00640598,0,0,0.00640598,0,0)"/>
<path style="fill:none;stroke-width:529;stroke-linecap:butt;stroke-linejoin:round;stroke:rgb(50.196078%,50.196078%,50.196078%);stroke-opacity:1;stroke-miterlimit:4;" d="M 9032.6993 7000.296224 C 8665.000814 7000.296224 8352.182699 6916.146322 8033.266764 6731.992188 C 7713.741048 6547.838053 7485.072835 6319.16984 7300.918701 6000.253906 C 7116.764567 5680.72819 7033.224447 5367.910075 7033.224447 5000.211589 C 7033.224447 4631.90332 7116.764567 4319.085205 7300.918701 4000.169271 C 7485.072835 3681.253337 7713.741048 3451.975342 8033.266764 3267.821208 C 8352.182699 3084.276855 8665.000814 3000.126953 9032.6993 3000.126953 " transform="matrix(0.00640598,0,0,0.00640598,0,0)"/>
<path style="fill:none;stroke-width:529;stroke-linecap:butt;stroke-linejoin:round;stroke:rgb(10.980392%,10.980392%,10.980392%);stroke-opacity:1;stroke-miterlimit:4;" d="M 4800.203125 7000.296224 C 4431.894857 7000.296224 4119.076742 6916.146322 3800.160807 6731.992188 C 3481.244873 6547.838053 3251.966878 6319.16984 3067.812744 6000.253906 C 2884.268392 5680.72819 2800.11849 5367.910075 2800.11849 5000.211589 C 2800.11849 4631.90332 2884.268392 4319.085205 3067.812744 4000.169271 C 3251.966878 3681.253337 3481.244873 3451.975342 3800.160807 3267.821208 C 4119.076742 3084.276855 4431.894857 3000.126953 4800.203125 3000.126953 " transform="matrix(0.00640598,0,0,0.00640598,0,0)"/>
<path style="fill:none;stroke-width:529;stroke-linecap:butt;stroke-linejoin:round;stroke:rgb(50.196078%,50.196078%,50.196078%);stroke-opacity:1;stroke-miterlimit:4;" d="M 9082.701416 6250.264486 C 8852.813639 6250.264486 8657.073649 6197.823242 8458.284749 6083.184245 C 8258.886068 5966.715902 8116.197103 5824.026937 7999.72876 5625.238037 C 7885.089762 5425.839355 7833.258301 5230.099365 7833.258301 5000.211589 C 7833.258301 4769.71403 7885.089762 4573.97404 7999.72876 4375.18514 C 8116.197103 4175.786458 8258.886068 4033.097493 8458.284749 3917.238932 C 8657.073649 3801.990153 8852.813639 3750.158691 9082.701416 3750.158691 " transform="matrix(0.00640598,0,0,0.00640598,0,0)"/>
<path style="fill:none;stroke-width:529;stroke-linecap:butt;stroke-linejoin:round;stroke:rgb(10.980392%,10.980392%,10.980392%);stroke-opacity:1;stroke-miterlimit:4;" d="M 4850.205241 6250.264486 C 4619.707682 6250.264486 4423.967692 6197.823242 4225.178792 6083.184245 C 4025.780111 5966.715902 3883.091146 5824.026937 3767.232585 5625.238037 C 3651.983805 5425.839355 3600.152344 5230.099365 3600.152344 5000.211589 C 3600.152344 4769.71403 3651.983805 4573.97404 3767.232585 4375.18514 C 3883.091146 4175.786458 4025.780111 4033.097493 4225.178792 3917.238932 C 4423.967692 3801.990153 4619.707682 3750.158691 4850.205241 3750.158691 " transform="matrix(0.00640598,0,0,0.00640598,0,0)"/>
</g>
</svg>
